<svg width="32" height="32" viewBox="0 0 32 32" fill="none" xmlns="http://www.w3.org/2000/svg">
<g clip-path="url(#clip0_418_1102)">
<path d="M14.6666 14.6666V9.33329H17.3333V14.6666H22.6666V17.3333H17.3333V22.6666H14.6666V17.3333H9.33329V14.6666H14.6666ZM16 29.3333C8.63596 29.3333 2.66663 23.364 2.66663 16C2.66663 8.63596 8.63596 2.66663 16 2.66663C23.364 2.66663 29.3333 8.63596 29.3333 16C29.3333 23.364 23.364 29.3333 16 29.3333ZM16 26.6666C18.8289 26.6666 21.542 25.5428 23.5424 23.5424C25.5428 21.542 26.6666 18.8289 26.6666 16C26.6666 13.171 25.5428 10.4579 23.5424 8.45749C21.542 6.4571 18.8289 5.33329 16 5.33329C13.171 5.33329 10.4579 6.4571 8.45749 8.45749C6.4571 10.4579 5.33329 13.171 5.33329 16C5.33329 18.8289 6.4571 21.542 8.45749 23.5424C10.4579 25.5428 13.171 26.6666 16 26.6666Z" fill="black"/>
</g>
<defs>
<clipPath id="clip0_418_1102">
<rect width="32" height="32" fill="white"/>
</clipPath>
</defs>
</svg>
