<svg width="32" height="32" viewBox="0 0 32 32" fill="none" xmlns="http://www.w3.org/2000/svg">
<path d="M8.04663 28.3334C8.04663 28.3334 7.37996 26.7401 7.47996 26.2334C7.49636 25.4749 7.38133 24.7193 7.13996 24.0001C7.02663 23.7467 6.4733 21.3934 6.4133 21.0534C6.3533 20.7134 6.18663 17.6601 6.4133 17.3801C6.73564 16.9863 6.97796 16.5334 7.12663 16.0467C7.06118 15.4447 7.15306 14.836 7.3933 14.2801C7.69996 13.8334 11.3933 9.71339 11.9666 9.48672C12.54 9.26005 13.2533 9.15339 13.4533 9.01339C14.7082 8.57977 16.011 8.29994 17.3333 8.18005C18.48 8.18005 21.68 9.58005 22.4666 12.4134C23.2533 15.2467 24.7466 16.0001 25 16.5067C25.2533 17.0134 25.34 21.5001 25.34 22.7601C25.34 24.0201 25.8133 24.6667 25.6733 25.1134C25.5333 25.5601 24.5933 28.3334 24.5933 28.3334" stroke="black" stroke-width="2" stroke-linecap="round" stroke-linejoin="round"/>
<path d="M14.9066 23.18C15.0822 23.7678 15.4682 24.2702 15.9909 24.5912C16.5137 24.9123 17.1364 25.0293 17.74 24.92C19.3933 24.6067 19.56 23.7667 19.5066 22.8734C19.4913 22.4693 19.4535 22.0665 19.3933 21.6667M18.3533 12.0334C18.7444 11.9205 19.1592 11.9187 19.5513 12.0282C19.9434 12.1377 20.2973 12.3542 20.5733 12.6534C21.3266 13.4934 23.0666 15.62 22.3666 16.6534C21.6666 17.6867 19.5333 18.3067 18.5533 17.66C17.5733 17.0134 16 15.7267 16.2266 14.8867C16.4533 14.0467 17.8533 12.22 18.3533 12.0334ZM12.36 14.5734C13.1666 15.04 14.4333 15.64 14.0933 16.5734C13.7533 17.5067 12.5 19.3734 11.74 19.6267C10.98 19.88 9.55331 19.88 9.07331 19.12C8.59331 18.36 8.48665 16.2067 8.82665 15.7867C9.16665 15.3667 10.9933 13.78 12.36 14.5734Z" stroke="black" stroke-width="1.5" stroke-linecap="round" stroke-linejoin="round"/>
<path d="M9.04667 15.6067C9.50001 15.7133 10.1867 15.9533 10.12 16.7867C10.0733 17.3733 8.90001 17.7 8.67334 17.6733M20.5733 12.6667C20.4109 12.6327 20.2425 12.64 20.0836 12.6878C19.9247 12.7356 19.7803 12.8225 19.6636 12.9405C19.5469 13.0586 19.4616 13.2039 19.4156 13.3634C19.3695 13.5228 19.3642 13.6913 19.4 13.8533C19.5292 14.0799 19.7314 14.256 19.9735 14.3528C20.2157 14.4497 20.4835 14.4616 20.7333 14.3867C20.9016 14.3164 21.0469 14.2005 21.1529 14.0521C21.2589 13.9037 21.3214 13.7287 21.3333 13.5467" stroke="black" stroke-width="1.5" stroke-linecap="round" stroke-linejoin="round"/>
<path d="M27 28.3333H4.99996C4.64634 28.3333 4.3072 28.1928 4.05715 27.9428C3.8071 27.6927 3.66663 27.3536 3.66663 27V4.99996C3.66663 4.64634 3.8071 4.3072 4.05715 4.05715C4.3072 3.8071 4.64634 3.66663 4.99996 3.66663H27C27.3536 3.66663 27.6927 3.8071 27.9428 4.05715C28.1928 4.3072 28.3333 4.64634 28.3333 4.99996V27C28.3333 27.3536 28.1928 27.6927 27.9428 27.9428C27.6927 28.1928 27.3536 28.3333 27 28.3333Z" stroke="black" stroke-width="2" stroke-linecap="round" stroke-linejoin="round"/>
</svg>
