<svg width="280" height="45" viewBox="0 0 280 45" fill="none" xmlns="http://www.w3.org/2000/svg">
<g filter="url(#filter0_b_4_151)">
<rect width="280" height="45" rx="10" fill="#FFF500"/>
<rect x="0.5" y="0.5" width="279" height="44" rx="9.5" stroke="#FFF500"/>
</g>
<path d="M72.9047 26.474C72.8867 26.186 72.8867 25.898 72.8867 25.61V23.018C72.2207 23.036 71.6087 23.018 71.1587 23C70.4027 22.982 70.3847 23 69.6467 23C68.9807 23 68.3687 22.928 67.8287 22.46C67.4687 22.136 67.3247 21.722 67.5947 21.308C67.9187 20.804 68.4767 20.714 68.9987 20.642C69.6467 20.552 69.0347 20.642 69.6827 20.606H72.8867V20.03C72.8867 19.652 72.8867 18.95 72.8507 18.554C72.8327 18.428 72.8147 18.158 72.6887 18.104C72.5627 18.032 72.4007 18.068 72.2567 18.05C72.0947 18.032 71.9327 18.068 71.7707 18.05H70.3667C69.9707 18.068 69.5387 18.032 69.1427 18.05C68.9627 18.068 68.8007 18.05 68.6207 18.05C68.3507 18.05 68.0447 18.05 67.8107 17.888C67.4687 17.654 67.3787 17.258 67.3787 16.88C67.3607 16.646 67.4147 16.412 67.5227 16.196C67.5767 16.07 67.6487 15.962 67.7567 15.89C67.8827 15.764 68.1527 15.674 68.3147 15.638C68.8187 15.512 69.3947 15.53 69.9167 15.53H73.6067C73.9127 15.566 74.2907 15.602 74.5787 15.71C74.7587 15.782 74.9747 15.908 75.0827 16.07C75.2987 16.412 75.2987 16.736 75.3347 17.132C75.3887 17.798 75.3707 18.464 75.3707 19.13V25.196C75.3707 25.25 75.4067 26.744 75.3707 27.5C75.3347 27.986 75.2267 28.58 74.5967 28.814C74.3807 28.904 74.1647 28.94 73.9847 28.94C73.6787 28.94 73.3187 28.814 73.1927 28.544C73.0127 28.184 72.9047 27.734 72.9047 27.266V26.474ZM80.2847 20.696H80.3207C80.4287 20.696 80.5367 20.732 80.6627 20.732C80.7887 20.75 80.9327 20.768 81.0767 20.786C81.3467 20.84 81.6347 20.948 81.7607 21.218C81.8507 21.362 81.8867 21.524 81.8867 21.686C81.8867 21.866 81.8867 22.028 81.8327 22.208C81.7967 22.388 81.7427 22.64 81.5807 22.766C81.4367 22.874 81.2747 22.964 81.0947 23C80.7167 23.054 80.0687 23 79.6907 23.018C79.6547 23.018 79.6367 23.036 79.6367 23.036C79.6367 23.036 79.6187 23.036 79.6187 23.108C79.6007 23.702 79.6187 24.764 79.6187 25.376C79.6367 25.988 79.6367 26.618 79.6187 27.212V27.464C79.6187 28.094 79.6187 29.012 79.1867 29.444C79.0427 29.606 78.8447 29.696 78.6107 29.696C78.6107 29.696 78.5927 29.678 78.5747 29.678C77.4047 29.642 77.2787 28.238 77.2787 27.482V16.79C77.2787 16.754 77.2607 15.854 77.6567 15.458C77.8187 15.296 78.1967 15.206 78.4667 15.206C78.7367 15.206 78.9707 15.314 79.1327 15.476C79.4567 15.818 79.4747 16.196 79.5107 16.592C79.5287 16.664 79.5287 16.736 79.5287 16.808C79.5827 17.204 79.5827 17.654 79.6007 18.086C79.6007 18.356 79.6187 18.59 79.6187 18.86C79.6007 19.004 79.6187 19.13 79.6187 19.256V20.264C79.6187 20.39 79.6187 20.534 79.6547 20.66C79.6547 20.678 80.0147 20.678 80.0327 20.678C80.1227 20.696 80.1947 20.714 80.2847 20.696ZM87.4381 26.474C87.4201 26.186 87.4201 25.898 87.4201 25.61V23.018C86.7541 23.036 86.1421 23.018 85.6921 23C84.9361 22.982 84.9181 23 84.1801 23C83.5141 23 82.9021 22.928 82.3621 22.46C82.0021 22.136 81.8581 21.722 82.1281 21.308C82.4521 20.804 83.0101 20.714 83.5321 20.642C84.1801 20.552 83.5681 20.642 84.2161 20.606H87.4201V20.03C87.4201 19.652 87.4201 18.95 87.3841 18.554C87.3661 18.428 87.3481 18.158 87.2221 18.104C87.0961 18.032 86.9341 18.068 86.7901 18.05C86.6281 18.032 86.4661 18.068 86.3041 18.05H84.9001C84.5041 18.068 84.0721 18.032 83.6761 18.05C83.4961 18.068 83.3341 18.05 83.1541 18.05C82.8841 18.05 82.5781 18.05 82.3441 17.888C82.0021 17.654 81.9121 17.258 81.9121 16.88C81.8941 16.646 81.9481 16.412 82.0561 16.196C82.1101 16.07 82.1821 15.962 82.2901 15.89C82.4161 15.764 82.6861 15.674 82.8481 15.638C83.3521 15.512 83.9281 15.53 84.4501 15.53H88.1401C88.4461 15.566 88.8241 15.602 89.1121 15.71C89.2921 15.782 89.5081 15.908 89.6161 16.07C89.8321 16.412 89.8321 16.736 89.8681 17.132C89.9221 17.798 89.9041 18.464 89.9041 19.13V25.196C89.9041 25.25 89.9401 26.744 89.9041 27.5C89.8681 27.986 89.7601 28.58 89.1301 28.814C88.9141 28.904 88.6981 28.94 88.5181 28.94C88.2121 28.94 87.8521 28.814 87.7261 28.544C87.5461 28.184 87.4381 27.734 87.4381 27.266V26.474ZM94.8181 20.696H94.8541C94.9621 20.696 95.0701 20.732 95.1961 20.732C95.3221 20.75 95.4661 20.768 95.6101 20.786C95.8801 20.84 96.1681 20.948 96.2941 21.218C96.3841 21.362 96.4201 21.524 96.4201 21.686C96.4201 21.866 96.4201 22.028 96.3661 22.208C96.3301 22.388 96.2761 22.64 96.1141 22.766C95.9701 22.874 95.8081 22.964 95.6281 23C95.2501 23.054 94.6021 23 94.2241 23.018C94.1881 23.018 94.1701 23.036 94.1701 23.036C94.1701 23.036 94.1521 23.036 94.1521 23.108C94.1341 23.702 94.1521 24.764 94.1521 25.376C94.1701 25.988 94.1701 26.618 94.1521 27.212V27.464C94.1521 28.094 94.1521 29.012 93.7201 29.444C93.5761 29.606 93.3781 29.696 93.1441 29.696C93.1441 29.696 93.1261 29.678 93.1081 29.678C91.9381 29.642 91.8121 28.238 91.8121 27.482V16.79C91.8121 16.754 91.7941 15.854 92.1901 15.458C92.3521 15.296 92.7301 15.206 93.0001 15.206C93.2701 15.206 93.5041 15.314 93.6661 15.476C93.9901 15.818 94.0081 16.196 94.0441 16.592C94.0621 16.664 94.0621 16.736 94.0621 16.808C94.1161 17.204 94.1161 17.654 94.1341 18.086C94.1341 18.356 94.1521 18.59 94.1521 18.86C94.1341 19.004 94.1521 19.13 94.1521 19.256V20.264C94.1521 20.39 94.1521 20.534 94.1881 20.66C94.1881 20.678 94.5481 20.678 94.5661 20.678C94.6561 20.696 94.7281 20.714 94.8181 20.696ZM108.703 26.402C108.775 26.42 108.847 26.402 108.919 26.402C109.315 26.438 109.675 26.528 109.999 26.816C110.161 26.978 110.251 27.194 110.251 27.446C110.251 27.698 110.161 28.058 110.017 28.22C109.639 28.598 108.757 28.562 108.721 28.562H98.6415C98.5335 28.562 98.4075 28.58 98.2815 28.58C97.7775 28.598 97.1295 28.634 96.7335 28.292C96.4995 28.076 96.3555 27.806 96.3555 27.518C96.3555 27.158 96.5895 26.708 96.9495 26.564C97.4355 26.384 97.9575 26.42 98.4795 26.402H98.5695C99.5955 26.384 100.711 26.384 101.791 26.402L101.773 23.774C100.333 23.684 98.9295 23.324 98.0475 22.064C97.5075 21.326 97.3635 20.462 97.3635 19.562C97.3635 17.708 98.4435 16.412 100.153 15.854C101.287 15.476 102.511 15.386 103.699 15.476C104.671 15.548 105.697 15.602 106.597 16.016C107.011 16.214 107.389 16.466 107.731 16.826C108.577 17.726 108.847 18.806 108.757 19.994C108.559 22.712 106.417 23.774 104.059 23.792L104.095 26.402C105.427 26.402 106.237 26.366 107.479 26.402C107.911 26.42 108.325 26.366 108.703 26.402ZM106.399 20.264C106.435 20.12 106.453 19.976 106.435 19.814C106.399 18.572 105.571 17.996 104.437 17.852C103.087 17.69 100.135 17.348 99.8475 19.274C99.6855 20.426 100.153 21.434 101.863 21.596C102.709 21.686 103.591 21.812 104.437 21.65C105.265 21.488 106.183 21.146 106.399 20.264ZM122.309 22.568C122.705 22.586 123.155 22.658 123.497 22.928C123.659 23.054 123.749 23.27 123.749 23.486C123.749 23.72 123.659 24.062 123.515 24.188C123.137 24.548 122.201 24.512 122.165 24.512L112.571 24.53C112.031 24.548 111.365 24.584 110.969 24.26C110.699 24.062 110.555 23.828 110.555 23.558C110.555 23.234 110.807 22.82 111.185 22.694C111.689 22.532 112.229 22.586 112.769 22.568C113.939 22.532 114.317 22.568 115.523 22.568V21.668H114.371H114.065C113.327 21.668 112.283 21.632 111.797 21.164C111.329 20.768 111.383 19.652 111.401 19.598V16.304C111.401 16.25 111.383 15.692 111.545 15.494C111.743 15.242 111.905 15.134 112.247 15.098C112.445 15.062 112.859 15.062 112.859 15.062H120.851C121.067 15.062 121.265 15.062 121.481 15.116C121.697 15.152 121.895 15.188 122.057 15.35C122.201 15.458 122.273 15.62 122.309 15.764C122.345 15.908 122.363 16.034 122.327 16.178C122.273 16.556 121.931 16.844 121.427 16.844H113.741V17.546C114.461 17.564 118.403 17.546 118.421 17.546H120.077C120.167 17.546 120.293 17.564 120.419 17.546H120.887C121.121 17.546 121.409 17.564 121.625 17.69C121.967 17.834 122.039 18.194 122.003 18.464C121.985 18.608 121.985 18.77 121.877 18.878C121.625 19.166 121.337 19.202 121.031 19.202H113.723L113.741 19.652C113.723 19.904 113.777 19.742 113.849 19.76C113.993 19.832 114.407 19.868 114.821 19.868H114.911C115.289 19.85 119.015 19.85 119.393 19.868H120.239C120.329 19.868 120.383 19.868 120.473 19.85H120.779C121.139 19.85 121.517 19.85 121.877 19.94C121.931 19.94 122.003 19.976 122.057 19.994C122.651 20.336 122.579 21.146 121.931 21.416C121.445 21.632 120.851 21.668 120.365 21.668H119.627C119.429 21.686 118.709 21.686 118.061 21.686C118.079 21.974 118.079 22.298 118.079 22.568C119.411 22.568 121.283 22.514 122.309 22.568ZM121.247 25.142C122.219 25.142 122.795 25.466 122.795 26.024V27.248C122.813 27.464 122.831 28.832 122.795 29.102C122.759 29.606 122.363 29.948 121.823 29.948C121.697 29.948 121.571 29.93 121.445 29.894C120.797 29.696 120.761 29.102 120.743 28.562C120.725 28.346 120.707 27.464 120.671 27.284C120.599 27.266 120.347 27.23 119.465 27.23C118.691 27.23 118.097 27.248 118.097 27.248H112.085C112.049 27.248 111.347 27.086 111.275 26.582C111.203 26.132 111.275 25.772 111.491 25.502C111.779 25.16 112.211 25.16 112.229 25.16L121.247 25.142ZM131.611 15.548C133.231 15.674 134.581 15.854 135.643 17.006C136.489 17.906 136.759 19.292 136.669 20.48C136.471 23.216 134.257 24.494 131.881 24.494C129.901 24.494 127.309 24.692 125.959 22.784C125.419 22.046 125.275 20.948 125.275 20.048C125.275 18.194 126.355 16.538 128.065 15.98C129.199 15.602 130.423 15.458 131.611 15.548ZM134.113 20.75C134.149 20.606 134.167 20.462 134.149 20.3C134.113 19.058 133.411 18.248 132.277 18.104C131.899 18.068 131.485 18.032 130.963 18.032C129.577 18.05 127.975 18.356 127.759 19.76C127.597 20.912 128.065 22.154 129.775 22.316C130.135 22.352 130.513 22.406 130.891 22.424C132.115 22.514 133.735 22.262 134.113 20.75ZM125.617 28.454C124.861 28.382 124.069 28.22 124.069 27.284C124.069 27.032 124.159 26.816 124.303 26.654C124.681 26.276 125.563 26.294 125.599 26.294L135.625 26.312C136.237 26.312 136.777 26.24 137.173 26.582C137.407 26.798 137.551 27.068 137.551 27.356C137.551 27.716 137.317 28.04 136.957 28.166C136.471 28.346 135.949 28.418 135.445 28.436C133.699 28.508 131.971 28.454 130.369 28.454C128.641 28.454 126.697 28.508 125.617 28.454ZM150.212 26.384C150.284 26.402 150.356 26.384 150.428 26.384C150.824 26.42 151.184 26.51 151.508 26.798C151.67 26.96 151.76 27.176 151.76 27.428C151.76 27.68 151.67 28.04 151.526 28.202C151.148 28.58 150.266 28.544 150.23 28.544H140.15C140.042 28.544 139.916 28.562 139.79 28.562C139.286 28.58 138.638 28.616 138.242 28.274C138.008 28.058 137.864 27.788 137.864 27.5C137.864 27.14 138.098 26.69 138.458 26.546C138.944 26.366 139.466 26.402 139.988 26.384H140.078C141.23 26.366 142.418 26.366 143.606 26.384L143.588 24.692H141.716C141.23 24.692 140.708 24.692 140.186 24.674C139.682 24.638 139.322 24.098 139.268 23.486C139.232 23.036 139.214 21.362 139.214 20.984V20.552C139.196 20.264 139.196 19.922 139.412 19.652C139.718 19.238 140.366 19.184 140.888 19.184C141.014 19.184 141.356 19.22 141.518 19.202H147.908V17.69H141.338C141.212 17.69 141.068 17.708 140.942 17.708C140.798 17.708 140.636 17.726 140.492 17.726C140.258 17.726 140.06 17.708 139.88 17.654C139.664 17.6 139.502 17.456 139.376 17.24C139.214 16.952 139.178 16.682 139.25 16.358C139.376 15.926 139.916 15.728 140.186 15.674C140.366 15.638 140.546 15.638 140.762 15.638H141.392C142.148 15.656 143.768 15.656 144.812 15.638H148.448C148.862 15.638 149.276 15.638 149.654 15.764C150.23 15.926 150.338 16.61 150.338 17.132V19.508C150.338 19.868 150.212 20.912 149.834 21.164C149.51 21.362 149.186 21.362 148.898 21.344H141.788V22.784H148.916C149.132 22.784 149.33 22.784 149.528 22.802C149.888 22.82 150.212 22.982 150.338 23.396C150.464 23.882 150.302 24.35 149.87 24.548C149.582 24.674 149.258 24.692 149.006 24.692H145.91L145.928 26.384C147.062 26.366 147.872 26.366 148.988 26.384C149.42 26.402 149.834 26.348 150.212 26.384ZM164.039 26.762C164.111 26.888 164.183 27.014 164.219 27.176C164.291 27.428 164.345 27.752 164.183 28.094C164.003 28.454 163.715 28.67 163.391 28.688H163.373C162.941 28.688 162.653 28.346 162.293 27.95C161.933 27.572 161.645 27.158 161.411 26.852C161.393 26.798 161.339 26.744 161.303 26.654C160.709 25.736 160.439 25.43 160.385 25.412C160.331 25.448 160.079 25.736 160.043 25.79C159.989 25.862 159.935 25.916 159.899 25.97C159.683 26.204 159.593 26.474 159.395 26.726C159.197 26.978 158.999 27.23 158.783 27.464C158.729 27.518 158.675 27.59 158.639 27.644C158.279 28.04 157.901 28.49 157.379 28.67C157.253 28.724 157.145 28.742 157.019 28.742C156.749 28.742 156.479 28.616 156.281 28.418C156.083 28.22 155.975 27.95 155.975 27.662C155.993 27.23 156.245 26.834 156.443 26.51L156.479 26.438C156.551 26.33 156.623 26.222 156.695 26.132C156.731 26.06 156.785 26.006 156.821 25.952C156.947 25.754 157.073 25.574 157.199 25.43C157.235 25.394 157.253 25.34 157.289 25.304C157.307 25.268 157.325 25.232 157.361 25.214L157.397 25.16C157.487 25.034 157.559 24.926 157.631 24.818C157.793 24.566 157.919 24.332 158.045 24.116C158.189 23.846 158.333 23.594 158.513 23.36C158.639 23.18 158.765 22.982 158.891 22.784L158.963 22.676C159.125 22.406 159.215 22.226 159.233 21.974C159.269 21.596 159.269 21.236 159.269 20.804V17.834C159.269 17.6 159.269 17.384 159.287 17.15C159.287 16.898 159.341 16.61 159.413 16.394C159.467 16.25 159.557 16.07 159.647 15.926C159.773 15.746 160.025 15.656 160.277 15.602L160.313 15.584C160.511 15.53 160.637 15.548 160.835 15.62C160.925 15.656 161.033 15.71 161.105 15.782C161.213 15.872 161.285 16.052 161.357 16.25C161.465 16.484 161.537 16.79 161.573 17.132C161.663 18.14 161.681 19.31 161.681 20.318C161.699 20.93 161.699 21.56 161.735 22.154C161.753 22.676 162.077 23.126 162.329 23.576C162.599 24.098 162.887 24.62 163.193 25.124C163.319 25.358 163.445 25.592 163.589 25.826C163.643 25.934 163.697 26.042 163.751 26.132C163.805 26.258 163.877 26.384 163.931 26.51L163.985 26.654L164.039 26.762ZM168.575 28.274C168.539 28.562 168.521 28.832 168.431 29.12C168.395 29.21 168.359 29.282 168.323 29.372C168.251 29.516 168.143 29.66 167.999 29.768C167.729 29.93 167.387 29.966 167.081 29.894C166.901 29.858 166.739 29.786 166.613 29.678C166.181 29.282 166.199 28.346 166.199 28.31V17.186C166.181 16.628 166.199 15.728 166.541 15.404C166.793 15.152 167.099 15.116 167.423 15.116C167.837 15.116 168.215 15.368 168.359 15.764C168.575 16.268 168.557 16.826 168.575 17.384V17.474C168.629 19.31 168.575 21.344 168.575 23.072V27.626C168.575 27.842 168.593 28.058 168.575 28.274ZM174.718 17.402C174.7 17.384 174.7 18.788 174.718 18.878C174.844 18.986 175.222 19.346 175.438 19.526C175.672 19.724 175.924 19.958 176.194 20.21C176.356 20.372 176.5 20.534 176.626 20.66C177.076 21.11 177.616 21.668 177.778 22.208C177.85 22.424 177.814 22.73 177.562 22.91C177.382 23.018 177.166 23.09 176.914 23.09C176.392 23.09 175.87 22.82 175.582 22.604C175.132 22.262 174.754 21.884 174.376 21.506C174.106 21.236 173.764 20.84 173.422 20.588L172.936 21.074C172.774 21.236 172.594 21.398 172.45 21.56C172.144 21.902 171.82 22.262 171.388 22.568C170.902 22.928 170.434 23.108 170.002 23.108C169.894 23.108 169.804 23.108 169.696 23.072C169.444 23.018 169.264 22.91 169.174 22.748C169.012 22.478 169.102 22.1 169.246 21.848C169.426 21.578 169.696 21.326 169.93 21.074C170.362 20.606 172 19.076 172.198 18.878V17.402H171.046C170.452 17.402 169.426 17.546 169.12 16.844C169.012 16.574 168.958 16.214 169.03 15.926C169.12 15.584 169.534 15.476 169.84 15.44C169.948 15.422 171.442 15.458 171.604 15.422H175.816C176.77 15.422 177.436 15.494 177.832 15.962C178.066 16.25 177.994 17.024 177.616 17.204C177.436 17.276 177.13 17.384 176.932 17.402C176.59 17.42 176.248 17.402 175.906 17.402H174.718ZM180.514 24.638C181.504 24.638 181.972 25.142 181.972 25.7V26.726C181.972 26.87 181.972 27.986 181.99 28.112C181.99 28.364 181.99 28.634 181.972 28.904C181.936 29.408 181.54 29.75 181 29.75C180.874 29.75 180.496 29.732 180.37 29.696C179.722 29.498 179.686 28.904 179.65 28.364C179.65 28.148 179.632 26.96 179.578 26.78C179.506 26.762 179.272 26.726 178.372 26.726C177.616 26.726 177.526 26.744 177.508 26.744H171.01C170.974 26.744 170.272 26.564 170.2 26.078C170.128 25.61 170.2 25.25 170.416 24.998C170.704 24.656 171.136 24.656 171.154 24.638H180.514ZM182.368 20.588H181.954V22.226C181.936 22.478 181.9 22.766 181.756 23.036C181.684 23.18 181.576 23.306 181.45 23.396C181.27 23.522 180.982 23.576 180.784 23.576C180.604 23.576 180.352 23.54 180.208 23.45C179.722 23.162 179.65 22.496 179.65 22.478V16.538C179.632 16.448 179.668 15.89 179.812 15.602C179.92 15.368 180.262 15.206 180.604 15.17C181.018 15.116 181.468 15.224 181.666 15.44C181.81 15.62 181.846 15.8 181.9 15.998C181.972 16.232 181.972 16.52 181.954 16.772V18.014C181.954 18.014 181.936 18.248 181.954 18.59C182.152 18.608 183.124 18.626 183.34 18.68C183.808 18.77 183.97 18.968 184.024 19.22C184.096 19.472 184.114 19.886 183.97 20.12C183.682 20.588 183.07 20.57 182.368 20.588ZM188.565 19.544C192.435 19.688 192.615 25.052 191.157 27.644C190.095 29.516 187.053 29.624 185.613 28.076C185.001 27.41 184.785 26.69 184.659 25.808C184.407 24.044 184.281 22.496 185.235 20.894C185.757 19.994 187.251 19.49 188.565 19.544ZM196.953 20.858H196.989C197.097 20.858 197.205 20.894 197.331 20.894C197.457 20.912 197.601 20.93 197.745 20.948C198.015 21.002 198.303 21.11 198.429 21.38C198.519 21.524 198.555 21.686 198.555 21.848C198.555 22.028 198.555 22.19 198.501 22.37C198.465 22.55 198.411 22.802 198.249 22.928C198.105 23.036 197.943 23.126 197.763 23.162C197.385 23.216 196.737 23.162 196.359 23.18C196.323 23.18 196.305 23.198 196.305 23.198C196.305 23.198 196.287 23.198 196.287 23.27C196.269 23.864 196.287 24.764 196.287 25.376C196.305 25.988 196.305 26.618 196.287 27.212V27.464C196.287 28.094 196.287 29.012 195.855 29.444C195.711 29.606 195.513 29.696 195.279 29.696C195.279 29.696 195.261 29.678 195.243 29.678C194.073 29.642 193.947 28.238 193.947 27.482V16.79C193.947 16.754 193.929 15.854 194.325 15.458C194.487 15.296 194.865 15.206 195.135 15.206C195.405 15.206 195.639 15.314 195.801 15.476C196.125 15.818 196.143 16.196 196.179 16.592C196.197 16.664 196.197 16.736 196.197 16.808C196.251 17.204 196.251 17.654 196.269 18.086C196.269 18.356 196.287 18.59 196.287 18.86C196.269 19.004 196.287 19.13 196.287 19.256V20.426C196.287 20.552 196.287 20.696 196.323 20.822C196.323 20.84 196.683 20.84 196.701 20.84C196.791 20.858 196.863 20.876 196.953 20.858ZM191.085 16.664C191.553 16.664 192.111 16.772 192.363 17.24C192.525 17.546 192.471 18.104 192.237 18.41C191.769 19.004 189.969 18.806 189.645 18.824C189.465 18.842 189.285 18.842 189.069 18.842H188.493C188.313 18.824 188.133 18.824 187.935 18.824L185.811 18.788C184.587 18.788 184.119 18.482 184.029 17.816C183.975 17.456 184.083 17.168 184.299 16.97C184.623 16.682 184.803 16.646 185.163 16.646C185.253 16.646 185.361 16.664 185.451 16.664H185.901C186.243 16.664 186.747 16.646 187.089 16.628C187.107 16.448 187.125 15.836 187.143 15.674C187.161 15.476 187.233 15.278 187.341 15.116C187.575 14.792 187.917 14.612 188.277 14.63C188.619 14.666 188.979 14.684 189.195 14.972C189.465 15.35 189.357 16.124 189.411 16.646H189.933C190.131 16.646 190.581 16.664 190.761 16.664H191.085ZM188.493 27.158C189.573 26.996 189.987 25.646 189.969 24.674C189.951 23.846 189.915 22.532 189.177 22.028C188.529 21.596 187.179 21.794 186.837 22.55C186.387 23.522 186.423 24.512 186.639 25.538C186.747 26.06 186.945 26.708 187.395 27.014C187.593 27.14 188.295 27.194 188.493 27.158ZM211.864 28.274C211.828 28.562 211.81 28.832 211.72 29.12C211.684 29.21 211.648 29.282 211.612 29.372C211.54 29.516 211.432 29.66 211.288 29.768C211.018 29.93 210.676 29.966 210.37 29.894C210.19 29.858 210.028 29.786 209.902 29.678C209.47 29.282 209.488 28.346 209.488 28.31V17.186C209.47 16.628 209.488 15.728 209.83 15.404C210.082 15.152 210.388 15.116 210.712 15.116C211.126 15.116 211.504 15.368 211.648 15.764C211.864 16.268 211.846 16.826 211.864 17.384V17.474C211.918 19.31 211.864 21.344 211.864 23.072V27.626C211.864 27.842 211.882 28.058 211.864 28.274ZM203.368 26.51C203.35 26.222 203.35 25.934 203.35 25.646V19.922C203.35 19.544 203.35 19.148 203.314 18.752C203.296 18.626 203.278 18.356 203.152 18.302C203.026 18.23 202.864 18.266 202.72 18.248C202.558 18.23 202.396 18.266 202.234 18.248H201.388C200.992 18.266 200.56 18.23 200.164 18.248C199.984 18.266 199.822 18.248 199.642 18.248C199.372 18.248 199.066 18.248 198.832 18.086C198.49 17.852 198.4 17.456 198.4 17.078C198.382 16.844 198.436 16.61 198.544 16.394C198.598 16.268 198.67 16.16 198.778 16.088C198.904 15.962 199.174 15.872 199.336 15.836C199.84 15.71 200.416 15.728 200.938 15.728H204.07C204.376 15.764 204.754 15.8 205.042 15.908C205.222 15.98 205.438 16.106 205.546 16.268C205.762 16.61 205.762 16.934 205.798 17.33C205.852 17.996 205.834 18.662 205.834 19.328V25.232C205.834 25.286 205.87 26.78 205.834 27.536C205.798 28.022 205.69 28.616 205.06 28.85C204.844 28.94 204.628 28.976 204.448 28.976C204.142 28.976 203.782 28.85 203.656 28.58C203.476 28.22 203.368 27.77 203.368 27.302V26.51Z" fill="black"/>
<g clip-path="url(#clip0_4_151)">
<path d="M46.4683 28.4562L42.5 29.25L43.382 25.6786C42.8012 24.7008 42.4982 23.6088 42.5 22.5C42.5 18.772 45.8578 15.75 50 15.75C54.1423 15.75 57.5 18.772 57.5 22.5C57.5 26.228 54.1423 29.25 50 29.25C48.768 29.2517 47.5547 28.979 46.4683 28.4562Z" fill="black"/>
</g>
<defs>
<filter id="filter0_b_4_151" x="-4" y="-4" width="288" height="53" filterUnits="userSpaceOnUse" color-interpolation-filters="sRGB">
<feFlood flood-opacity="0" result="BackgroundImageFix"/>
<feGaussianBlur in="BackgroundImageFix" stdDeviation="2"/>
<feComposite in2="SourceAlpha" operator="in" result="effect1_backgroundBlur_4_151"/>
<feBlend mode="normal" in="SourceGraphic" in2="effect1_backgroundBlur_4_151" result="shape"/>
</filter>
<clipPath id="clip0_4_151">
<rect width="18" height="16.2" fill="white" transform="translate(41 14.4)"/>
</clipPath>
</defs>
</svg>
