<svg width="32" height="32" viewBox="0 0 32 32" fill="none" xmlns="http://www.w3.org/2000/svg">
<g clip-path="url(#clip0_44_3008)">
<path d="M9.33329 6.66671V2.66671C9.33329 2.31309 9.47377 1.97395 9.72382 1.7239C9.97387 1.47385 10.313 1.33337 10.6666 1.33337H21.3333C21.6869 1.33337 22.0261 1.47385 22.2761 1.7239C22.5261 1.97395 22.6666 2.31309 22.6666 2.66671V6.66671H28C28.3536 6.66671 28.6927 6.80718 28.9428 7.05723C29.1928 7.30728 29.3333 7.64642 29.3333 8.00004V26.6667C29.3333 27.0203 29.1928 27.3595 28.9428 27.6095C28.6927 27.8596 28.3536 28 28 28H3.99996C3.64634 28 3.3072 27.8596 3.05715 27.6095C2.8071 27.3595 2.66663 27.0203 2.66663 26.6667V8.00004C2.66663 7.64642 2.8071 7.30728 3.05715 7.05723C3.3072 6.80718 3.64634 6.66671 3.99996 6.66671H9.33329ZM12 17.3334H5.33329V25.3334H26.6666V17.3334H20V21.3334H12V17.3334ZM26.6666 9.33337H5.33329V14.6667H12V12H20V14.6667H26.6666V9.33337ZM14.6666 14.6667V18.6667H17.3333V14.6667H14.6666ZM12 4.00004V6.66671H20V4.00004H12Z" fill="black"/>
</g>
<defs>
<clipPath id="clip0_44_3008">
<rect width="32" height="32" fill="white"/>
</clipPath>
</defs>
</svg>
