<svg width="32" height="32" viewBox="0 0 32 32" fill="none" xmlns="http://www.w3.org/2000/svg">
<path d="M25.3333 28.0001H6.66665C6.31302 28.0001 5.97389 27.8596 5.72384 27.6095C5.47379 27.3595 5.33331 27.0203 5.33331 26.6667V14.6667H1.33331L15.1026 2.14939C15.3481 1.92603 15.6681 1.80225 16 1.80225C16.3319 1.80225 16.6518 1.92603 16.8973 2.14939L30.6666 14.6667H26.6666V26.6667C26.6666 27.0203 26.5262 27.3595 26.2761 27.6095C26.0261 27.8596 25.6869 28.0001 25.3333 28.0001ZM17.3333 25.3334H24V12.2094L16 4.93739L7.99998 12.2094V25.3334H14.6666V17.3334H17.3333V25.3334Z" fill="black"/>
</svg>
