<svg width="280" height="45" viewBox="0 0 280 45" fill="none" xmlns="http://www.w3.org/2000/svg">
<g filter="url(#filter0_b_4_176)">
<rect width="280" height="45" rx="10" fill="black"/>
<rect x="0.5" y="0.5" width="279" height="44" rx="9.5" stroke="black"/>
</g>
<path d="M93.4148 27.824C93.4328 27.968 93.4508 28.094 93.4508 28.256C93.4508 28.4 93.4148 28.526 93.3248 28.652C93.2528 28.76 93.1268 28.886 92.9648 28.958C92.6588 29.138 92.3528 29.192 92.0108 29.138C91.8668 29.102 91.7048 29.03 91.5608 28.904C91.5248 28.868 91.4888 28.85 91.4708 28.814C91.4528 28.796 91.4168 28.742 91.3808 28.724C91.2728 28.616 91.2008 28.49 91.1288 28.382C91.0748 28.274 91.0208 28.166 90.9488 28.04C90.8948 27.95 90.8408 27.86 90.8228 27.77C90.7868 27.68 90.7508 27.572 90.7328 27.482L90.3548 26.6C88.7168 26.6 87.0428 26.618 85.4048 26.6L85.0268 27.482C84.9908 27.572 84.9728 27.68 84.9368 27.77C84.9008 27.86 84.8648 27.95 84.8108 28.04C84.7388 28.166 84.6848 28.274 84.6128 28.382C84.5588 28.49 84.4868 28.616 84.3788 28.724C84.3428 28.742 84.3068 28.796 84.2888 28.814C84.2708 28.85 84.2348 28.868 84.1988 28.904C84.0548 29.03 83.8928 29.102 83.7488 29.138C83.4068 29.192 83.1008 29.138 82.7948 28.958C82.6328 28.886 82.5068 28.76 82.4348 28.652C82.3448 28.526 82.3088 28.4 82.3088 28.256C82.3088 28.094 82.3268 27.968 82.3448 27.824C82.3628 27.716 82.3988 27.59 82.4348 27.5C82.4708 27.392 82.4888 27.356 82.4888 27.338L86.2328 18.122L86.3408 17.834C86.3948 17.69 86.4668 17.582 86.5208 17.42C86.5748 17.276 86.6288 17.15 86.7188 17.006C86.7908 16.862 86.8988 16.736 86.9888 16.628C87.0788 16.52 87.1868 16.448 87.2948 16.394C87.6368 16.268 88.1228 16.268 88.4648 16.394C88.5728 16.448 88.6808 16.52 88.7708 16.628C88.8608 16.736 88.9508 16.862 89.0408 17.006C89.1308 17.15 89.1848 17.276 89.2388 17.42C89.2928 17.582 89.3648 17.69 89.4188 17.834L89.5268 18.122L93.2708 27.338C93.2708 27.356 93.2888 27.392 93.3248 27.5C93.3608 27.59 93.3968 27.716 93.4148 27.824ZM89.4728 24.206L89.1488 23.414C88.8428 22.73 88.5188 21.974 88.1588 21.2C88.0688 20.984 87.9608 20.75 87.8708 20.534C87.7988 20.75 87.6908 20.984 87.6008 21.2C87.2408 21.974 86.9168 22.73 86.6108 23.414L86.2868 24.206H89.4728ZM99.5268 20.948C100.913 21.542 101.885 23.198 101.885 24.836C101.903 26.06 101.345 27.23 100.031 27.806C99.0408 28.22 97.9608 28.4 96.8088 28.472V31.766C96.8088 31.91 96.7548 32.036 96.7548 32.144C96.7188 32.378 96.6468 32.558 96.5568 32.774C96.4668 32.918 96.3768 33.044 96.2508 33.152C95.9628 33.296 95.6748 33.332 95.3508 33.242C95.1528 33.224 95.0088 33.17 94.8828 33.062C94.7928 32.972 94.7028 32.864 94.6488 32.72C94.5948 32.576 94.5588 32.45 94.5228 32.306C94.5048 32.198 94.4868 32.072 94.4868 31.964V21.938C94.4868 21.794 94.5048 21.632 94.5228 21.47C94.5408 21.326 94.5768 21.182 94.6308 21.038C94.8468 20.444 95.5848 20.264 96.4308 20.282C97.6008 20.318 98.9688 20.714 99.5268 20.948ZM99.5628 24.836C99.7428 23.486 98.4288 23.036 97.2588 22.874C97.1868 22.856 97.0068 22.856 96.8268 22.856C96.8268 23.612 96.8448 24.296 96.8268 25.106V26.312C97.9428 26.24 99.4008 26.024 99.5628 24.836ZM107.978 20.948C109.364 21.542 110.336 23.198 110.336 24.836C110.354 26.06 109.796 27.23 108.482 27.806C107.492 28.22 106.412 28.4 105.26 28.472V31.766C105.26 31.91 105.206 32.036 105.206 32.144C105.17 32.378 105.098 32.558 105.008 32.774C104.918 32.918 104.828 33.044 104.702 33.152C104.414 33.296 104.126 33.332 103.802 33.242C103.604 33.224 103.46 33.17 103.334 33.062C103.244 32.972 103.154 32.864 103.1 32.72C103.046 32.576 103.01 32.45 102.974 32.306C102.956 32.198 102.938 32.072 102.938 31.964V21.938C102.938 21.794 102.956 21.632 102.974 21.47C102.992 21.326 103.028 21.182 103.082 21.038C103.298 20.444 104.036 20.264 104.882 20.282C106.052 20.318 107.42 20.714 107.978 20.948ZM108.014 24.836C108.194 23.486 106.88 23.036 105.71 22.874C105.638 22.856 105.458 22.856 105.278 22.856C105.278 23.612 105.296 24.296 105.278 25.106V26.312C106.394 26.24 107.852 26.024 108.014 24.836ZM113.784 27.608C113.766 27.734 113.748 27.842 113.748 27.95L113.64 28.328C113.622 28.364 113.604 28.4 113.586 28.418L113.532 28.526C113.46 28.67 113.334 28.778 113.208 28.85C112.92 28.994 112.614 29.03 112.29 28.958C112.092 28.94 111.912 28.868 111.804 28.778C111.696 28.706 111.606 28.616 111.552 28.472C111.498 28.346 111.462 28.22 111.444 28.112C111.408 27.986 111.39 27.878 111.39 27.788V17.708C111.39 17.546 111.408 17.42 111.426 17.294C111.444 17.132 111.48 17.024 111.534 16.88C111.57 16.772 111.642 16.664 111.732 16.592C111.858 16.502 112.002 16.43 112.146 16.412C112.308 16.358 112.452 16.358 112.632 16.358C112.812 16.358 113.01 16.412 113.208 16.502C113.37 16.592 113.496 16.736 113.568 16.898C113.676 17.114 113.748 17.348 113.748 17.564C113.766 17.798 113.784 18.41 113.784 18.644V18.716C113.82 19.49 113.82 20.156 113.802 20.984C113.802 21.794 113.784 22.55 113.784 23.288V27.068C113.784 27.158 113.802 27.248 113.802 27.338C113.802 27.446 113.802 27.518 113.784 27.608ZM121.077 26.582C121.635 26.42 122.373 26.474 122.373 27.284C122.373 27.878 121.725 28.328 121.257 28.526C120.573 28.832 119.619 29.012 118.665 28.976C117.369 28.922 116.073 28.49 115.407 27.428C114.795 26.384 114.705 24.962 114.939 23.828C115.209 22.442 115.875 21.596 116.757 21.074C117.819 20.462 119.295 20.444 120.501 20.984C121.311 21.344 121.995 21.956 122.337 22.82C122.517 23.252 122.607 24.152 122.427 24.674C122.121 25.538 121.617 25.556 120.303 25.61C119.151 25.664 118.341 25.61 116.955 25.574C116.811 26.546 117.873 26.924 118.755 26.996C119.565 27.05 120.285 26.816 121.077 26.582ZM120.303 23.09C120.087 22.838 119.853 22.64 119.583 22.514C119.205 22.352 118.755 22.388 118.377 22.496C117.999 22.586 117.747 22.748 117.495 23.036C117.423 23.108 116.919 23.882 117.117 23.882H120.645C120.627 23.54 120.537 23.342 120.303 23.09ZM135.552 26.384C135.624 26.402 135.696 26.384 135.768 26.384C136.164 26.42 136.524 26.51 136.848 26.798C137.01 26.96 137.1 27.176 137.1 27.428C137.1 27.68 137.01 28.04 136.866 28.202C136.488 28.58 135.606 28.544 135.57 28.544H125.49C125.382 28.544 125.256 28.562 125.13 28.562C124.626 28.58 123.978 28.616 123.582 28.274C123.348 28.058 123.204 27.788 123.204 27.5C123.204 27.14 123.438 26.69 123.798 26.546C124.284 26.366 124.806 26.402 125.328 26.384H125.418C126.57 26.366 127.758 26.366 128.946 26.384L128.928 24.692H127.056C126.57 24.692 126.048 24.692 125.526 24.674C125.022 24.638 124.662 24.098 124.608 23.486C124.572 23.036 124.554 21.362 124.554 20.984V20.552C124.536 20.264 124.536 19.922 124.752 19.652C125.058 19.238 125.706 19.184 126.228 19.184C126.354 19.184 126.696 19.22 126.858 19.202H133.248V17.69H126.678C126.552 17.69 126.408 17.708 126.282 17.708C126.138 17.708 125.976 17.726 125.832 17.726C125.598 17.726 125.4 17.708 125.22 17.654C125.004 17.6 124.842 17.456 124.716 17.24C124.554 16.952 124.518 16.682 124.59 16.358C124.716 15.926 125.256 15.728 125.526 15.674C125.706 15.638 125.886 15.638 126.102 15.638H126.732C127.488 15.656 129.108 15.656 130.152 15.638H133.788C134.202 15.638 134.616 15.638 134.994 15.764C135.57 15.926 135.678 16.61 135.678 17.132V19.508C135.678 19.868 135.552 20.912 135.174 21.164C134.85 21.362 134.526 21.362 134.238 21.344H127.128V22.784H134.256C134.472 22.784 134.67 22.784 134.868 22.802C135.228 22.82 135.552 22.982 135.678 23.396C135.804 23.882 135.642 24.35 135.21 24.548C134.922 24.674 134.598 24.692 134.346 24.692H131.25L131.268 26.384C132.402 26.366 133.212 26.366 134.328 26.384C134.76 26.402 135.174 26.348 135.552 26.384ZM149.379 26.762C149.451 26.888 149.523 27.014 149.559 27.176C149.631 27.428 149.685 27.752 149.523 28.094C149.343 28.454 149.055 28.67 148.731 28.688H148.713C148.281 28.688 147.993 28.346 147.633 27.95C147.273 27.572 146.985 27.158 146.751 26.852C146.733 26.798 146.679 26.744 146.643 26.654C146.049 25.736 145.779 25.43 145.725 25.412C145.671 25.448 145.419 25.736 145.383 25.79C145.329 25.862 145.275 25.916 145.239 25.97C145.023 26.204 144.933 26.474 144.735 26.726C144.537 26.978 144.339 27.23 144.123 27.464C144.069 27.518 144.015 27.59 143.979 27.644C143.619 28.04 143.241 28.49 142.719 28.67C142.593 28.724 142.485 28.742 142.359 28.742C142.089 28.742 141.819 28.616 141.621 28.418C141.423 28.22 141.315 27.95 141.315 27.662C141.333 27.23 141.585 26.834 141.783 26.51L141.819 26.438C141.891 26.33 141.963 26.222 142.035 26.132C142.071 26.06 142.125 26.006 142.161 25.952C142.287 25.754 142.413 25.574 142.539 25.43C142.575 25.394 142.593 25.34 142.629 25.304C142.647 25.268 142.665 25.232 142.701 25.214L142.737 25.16C142.827 25.034 142.899 24.926 142.971 24.818C143.133 24.566 143.259 24.332 143.385 24.116C143.529 23.846 143.673 23.594 143.853 23.36C143.979 23.18 144.105 22.982 144.231 22.784L144.303 22.676C144.465 22.406 144.555 22.226 144.573 21.974C144.609 21.596 144.609 21.236 144.609 20.804V17.834C144.609 17.6 144.609 17.384 144.627 17.15C144.627 16.898 144.681 16.61 144.753 16.394C144.807 16.25 144.897 16.07 144.987 15.926C145.113 15.746 145.365 15.656 145.617 15.602L145.653 15.584C145.851 15.53 145.977 15.548 146.175 15.62C146.265 15.656 146.373 15.71 146.445 15.782C146.553 15.872 146.625 16.052 146.697 16.25C146.805 16.484 146.877 16.79 146.913 17.132C147.003 18.14 147.021 19.31 147.021 20.318C147.039 20.93 147.039 21.56 147.075 22.154C147.093 22.676 147.417 23.126 147.669 23.576C147.939 24.098 148.227 24.62 148.533 25.124C148.659 25.358 148.785 25.592 148.929 25.826C148.983 25.934 149.037 26.042 149.091 26.132C149.145 26.258 149.217 26.384 149.271 26.51L149.325 26.654L149.379 26.762ZM153.915 28.274C153.879 28.562 153.861 28.832 153.771 29.12C153.735 29.21 153.699 29.282 153.663 29.372C153.591 29.516 153.483 29.66 153.339 29.768C153.069 29.93 152.727 29.966 152.421 29.894C152.241 29.858 152.079 29.786 151.953 29.678C151.521 29.282 151.539 28.346 151.539 28.31V17.186C151.521 16.628 151.539 15.728 151.881 15.404C152.133 15.152 152.439 15.116 152.763 15.116C153.177 15.116 153.555 15.368 153.699 15.764C153.915 16.268 153.897 16.826 153.915 17.384V17.474C153.969 19.31 153.915 21.344 153.915 23.072V27.626C153.915 27.842 153.933 28.058 153.915 28.274ZM160.058 17.402C160.04 17.384 160.04 18.788 160.058 18.878C160.184 18.986 160.562 19.346 160.778 19.526C161.012 19.724 161.264 19.958 161.534 20.21C161.696 20.372 161.84 20.534 161.966 20.66C162.416 21.11 162.956 21.668 163.118 22.208C163.19 22.424 163.154 22.73 162.902 22.91C162.722 23.018 162.506 23.09 162.254 23.09C161.732 23.09 161.21 22.82 160.922 22.604C160.472 22.262 160.094 21.884 159.716 21.506C159.446 21.236 159.104 20.84 158.762 20.588L158.276 21.074C158.114 21.236 157.934 21.398 157.79 21.56C157.484 21.902 157.16 22.262 156.728 22.568C156.242 22.928 155.774 23.108 155.342 23.108C155.234 23.108 155.144 23.108 155.036 23.072C154.784 23.018 154.604 22.91 154.514 22.748C154.352 22.478 154.442 22.1 154.586 21.848C154.766 21.578 155.036 21.326 155.27 21.074C155.702 20.606 157.34 19.076 157.538 18.878V17.402H156.386C155.792 17.402 154.766 17.546 154.46 16.844C154.352 16.574 154.298 16.214 154.37 15.926C154.46 15.584 154.874 15.476 155.18 15.44C155.288 15.422 156.782 15.458 156.944 15.422H161.156C162.11 15.422 162.776 15.494 163.172 15.962C163.406 16.25 163.334 17.024 162.956 17.204C162.776 17.276 162.47 17.384 162.272 17.402C161.93 17.42 161.588 17.402 161.246 17.402H160.058ZM165.854 24.638C166.844 24.638 167.312 25.142 167.312 25.7V26.726C167.312 26.87 167.312 27.986 167.33 28.112C167.33 28.364 167.33 28.634 167.312 28.904C167.276 29.408 166.88 29.75 166.34 29.75C166.214 29.75 165.836 29.732 165.71 29.696C165.062 29.498 165.026 28.904 164.99 28.364C164.99 28.148 164.972 26.96 164.918 26.78C164.846 26.762 164.612 26.726 163.712 26.726C162.956 26.726 162.866 26.744 162.848 26.744H156.35C156.314 26.744 155.612 26.564 155.54 26.078C155.468 25.61 155.54 25.25 155.756 24.998C156.044 24.656 156.476 24.656 156.494 24.638H165.854ZM167.708 20.588H167.294V22.226C167.276 22.478 167.24 22.766 167.096 23.036C167.024 23.18 166.916 23.306 166.79 23.396C166.61 23.522 166.322 23.576 166.124 23.576C165.944 23.576 165.692 23.54 165.548 23.45C165.062 23.162 164.99 22.496 164.99 22.478V16.538C164.972 16.448 165.008 15.89 165.152 15.602C165.26 15.368 165.602 15.206 165.944 15.17C166.358 15.116 166.808 15.224 167.006 15.44C167.15 15.62 167.186 15.8 167.24 15.998C167.312 16.232 167.312 16.52 167.294 16.772V18.014C167.294 18.014 167.276 18.248 167.294 18.59C167.492 18.608 168.464 18.626 168.68 18.68C169.148 18.77 169.31 18.968 169.364 19.22C169.436 19.472 169.454 19.886 169.31 20.12C169.022 20.588 168.41 20.57 167.708 20.588ZM173.904 19.544C177.774 19.688 177.954 25.052 176.496 27.644C175.434 29.516 172.392 29.624 170.952 28.076C170.34 27.41 170.124 26.69 169.998 25.808C169.746 24.044 169.62 22.496 170.574 20.894C171.096 19.994 172.59 19.49 173.904 19.544ZM182.292 20.858H182.328C182.436 20.858 182.544 20.894 182.67 20.894C182.796 20.912 182.94 20.93 183.084 20.948C183.354 21.002 183.642 21.11 183.768 21.38C183.858 21.524 183.894 21.686 183.894 21.848C183.894 22.028 183.894 22.19 183.84 22.37C183.804 22.55 183.75 22.802 183.588 22.928C183.444 23.036 183.282 23.126 183.102 23.162C182.724 23.216 182.076 23.162 181.698 23.18C181.662 23.18 181.644 23.198 181.644 23.198C181.644 23.198 181.626 23.198 181.626 23.27C181.608 23.864 181.626 24.764 181.626 25.376C181.644 25.988 181.644 26.618 181.626 27.212V27.464C181.626 28.094 181.626 29.012 181.194 29.444C181.05 29.606 180.852 29.696 180.618 29.696C180.618 29.696 180.6 29.678 180.582 29.678C179.412 29.642 179.286 28.238 179.286 27.482V16.79C179.286 16.754 179.268 15.854 179.664 15.458C179.826 15.296 180.204 15.206 180.474 15.206C180.744 15.206 180.978 15.314 181.14 15.476C181.464 15.818 181.482 16.196 181.518 16.592C181.536 16.664 181.536 16.736 181.536 16.808C181.59 17.204 181.59 17.654 181.608 18.086C181.608 18.356 181.626 18.59 181.626 18.86C181.608 19.004 181.626 19.13 181.626 19.256V20.426C181.626 20.552 181.626 20.696 181.662 20.822C181.662 20.84 182.022 20.84 182.04 20.84C182.13 20.858 182.202 20.876 182.292 20.858ZM176.424 16.664C176.892 16.664 177.45 16.772 177.702 17.24C177.864 17.546 177.81 18.104 177.576 18.41C177.108 19.004 175.308 18.806 174.984 18.824C174.804 18.842 174.624 18.842 174.408 18.842H173.832C173.652 18.824 173.472 18.824 173.274 18.824L171.15 18.788C169.926 18.788 169.458 18.482 169.368 17.816C169.314 17.456 169.422 17.168 169.638 16.97C169.962 16.682 170.142 16.646 170.502 16.646C170.592 16.646 170.7 16.664 170.79 16.664H171.24C171.582 16.664 172.086 16.646 172.428 16.628C172.446 16.448 172.464 15.836 172.482 15.674C172.5 15.476 172.572 15.278 172.68 15.116C172.914 14.792 173.256 14.612 173.616 14.63C173.958 14.666 174.318 14.684 174.534 14.972C174.804 15.35 174.696 16.124 174.75 16.646H175.272C175.47 16.646 175.92 16.664 176.1 16.664H176.424ZM173.832 27.158C174.912 26.996 175.326 25.646 175.308 24.674C175.29 23.846 175.254 22.532 174.516 22.028C173.868 21.596 172.518 21.794 172.176 22.55C171.726 23.522 171.762 24.512 171.978 25.538C172.086 26.06 172.284 26.708 172.734 27.014C172.932 27.14 173.634 27.194 173.832 27.158ZM197.204 28.274C197.168 28.562 197.15 28.832 197.06 29.12C197.024 29.21 196.988 29.282 196.952 29.372C196.88 29.516 196.772 29.66 196.628 29.768C196.358 29.93 196.016 29.966 195.71 29.894C195.53 29.858 195.368 29.786 195.242 29.678C194.81 29.282 194.828 28.346 194.828 28.31V17.186C194.81 16.628 194.828 15.728 195.17 15.404C195.422 15.152 195.728 15.116 196.052 15.116C196.466 15.116 196.844 15.368 196.988 15.764C197.204 16.268 197.186 16.826 197.204 17.384V17.474C197.258 19.31 197.204 21.344 197.204 23.072V27.626C197.204 27.842 197.222 28.058 197.204 28.274ZM188.708 26.51C188.69 26.222 188.69 25.934 188.69 25.646V19.922C188.69 19.544 188.69 19.148 188.654 18.752C188.636 18.626 188.618 18.356 188.492 18.302C188.366 18.23 188.204 18.266 188.06 18.248C187.898 18.23 187.736 18.266 187.574 18.248H186.728C186.332 18.266 185.9 18.23 185.504 18.248C185.324 18.266 185.162 18.248 184.982 18.248C184.712 18.248 184.406 18.248 184.172 18.086C183.83 17.852 183.74 17.456 183.74 17.078C183.722 16.844 183.776 16.61 183.884 16.394C183.938 16.268 184.01 16.16 184.118 16.088C184.244 15.962 184.514 15.872 184.676 15.836C185.18 15.71 185.756 15.728 186.278 15.728H189.41C189.716 15.764 190.094 15.8 190.382 15.908C190.562 15.98 190.778 16.106 190.886 16.268C191.102 16.61 191.102 16.934 191.138 17.33C191.192 17.996 191.174 18.662 191.174 19.328V25.232C191.174 25.286 191.21 26.78 191.174 27.536C191.138 28.022 191.03 28.616 190.4 28.85C190.184 28.94 189.968 28.976 189.788 28.976C189.482 28.976 189.122 28.85 188.996 28.58C188.816 28.22 188.708 27.77 188.708 27.302V26.51Z" fill="white"/>
<path d="M55.6265 22.1673C55.6265 23.1687 53.1667 29.6882 49.1244 27.3969C45.6901 29.6882 42.8155 24.2018 43.0426 21.8913C42.6858 19.6864 44.5603 16.2953 49.1244 17.2417C55.2643 15.5763 55.6265 21.1658 55.6265 22.1673Z" fill="white"/>
<path d="M60.0001 20.7723C60.0001 22.5619 58.3929 24.0126 56.4104 24.0126C54.4279 24.0126 52.8208 22.5619 52.8208 20.7723C52.8208 18.9827 54.4279 17.5319 56.4104 17.5319C58.3929 17.5319 60.0001 18.9827 60.0001 20.7723Z" fill="black"/>
<path d="M50.8439 15.739C50.257 16.4734 48.73 17.0359 49.1455 16.7143C48.7823 17.3786 48.9217 15.5818 49.5087 14.8475C50.0956 14.1131 51.5282 13.6751 51.2712 14.0549C51.502 13.7139 51.4309 15.0047 50.8439 15.739Z" fill="white"/>
<ellipse cx="49.3988" cy="29.3956" rx="2.54626" ry="2.10431" fill="black"/>
<ellipse cx="0.810995" cy="0.269433" rx="0.810995" ry="0.269433" transform="matrix(-0.975495 0.220023 -0.275765 -0.961225 48.4962 28.2115)" fill="black"/>
<ellipse cx="0.293288" cy="1.08941" rx="0.293288" ry="1.08941" transform="matrix(0.168288 -0.985738 0.991112 0.133028 50.3376 28.2521)" fill="black"/>
<defs>
<filter id="filter0_b_4_176" x="-4" y="-4" width="288" height="53" filterUnits="userSpaceOnUse" color-interpolation-filters="sRGB">
<feFlood flood-opacity="0" result="BackgroundImageFix"/>
<feGaussianBlur in="BackgroundImageFix" stdDeviation="2"/>
<feComposite in2="SourceAlpha" operator="in" result="effect1_backgroundBlur_4_176"/>
<feBlend mode="normal" in="SourceGraphic" in2="effect1_backgroundBlur_4_176" result="shape"/>
</filter>
</defs>
</svg>
